<?xml version="1.0" encoding="UTF-8"?>
<svg id="Layer_1" data-name="Layer 1" xmlns="http://www.w3.org/2000/svg" viewBox="0 0 51 51">
  <defs>
    <style>
      .cls-1 {
        fill: #01934b;
      }

      .cls-2 {
        fill: #83e604;
      }

      .cls-3 {
        fill: #a3c8b2;
      }

      .cls-4 {
        fill: #bff002;
      }

      .cls-5 {
        fill: #22d410;
      }
    </style>
  </defs>
  <path class="cls-1" d="m41.69,33.62c.61.02,1.11.36,1.64.6.67.3,1.38.53,2,.94,1.25.82,1.56,1.88,1.27,3.25-.16.75-.63,1.34-1.06,1.93-.5.69-1.04,1.36-1.61,1.99-1.3,1.44-2.77,2.67-4.37,3.76-.59.4-1.21.72-1.94.83-.84.13-1.51-.16-2.04-.79-.37-.44-.59-.98-.81-1.51-.39-.9-.8-1.79-1.19-2.69-.05-.11-.06-.23-.1-.35.26.12.51.08.75-.06.52-.31,1.03-.64,1.55-.96,1.1-.68,2.08-1.52,2.96-2.45,1.1-1.16,2.09-2.43,2.79-3.9.09-.19.19-.37.18-.59Z"/>
  <path class="cls-1" d="m31.32,42.69c.31.71.57,1.44.85,2.16.18.46.39.92.55,1.39.18.53.3,1.08.21,1.64-.12.72-.6,1.17-1.19,1.53-.59.36-1.25.5-1.92.62-.44.08-.87.18-1.31.26-.16.03-.33.04-.5.06-1.34.11-2.68.12-4.01.07-.97-.04-1.95-.13-2.89-.34-1.05-.23-2.01-.74-2.66-1.63-.43-.58-.57-1.27-.26-2.02.45-1.08.83-2.17,1.24-3.27.04-.1.05-.21.15-.27.29.15.61.01.91.14.5.21,1.02.35,1.55.43.91.15,1.82.3,2.75.31,1.43,0,2.85-.03,4.25-.35.53-.12,1.05-.28,1.57-.42.25-.07.42-.34.71-.32Z"/>
  <path class="cls-1" d="m8.05,31.37c-.22.21-.53.24-.8.34-.78.28-1.53.66-2.32.92-2.18.7-3.53-.79-3.93-2.31-.21-.79-.28-1.63-.37-2.45-.06-.64-.09-1.27-.11-1.91-.03-.83,0-1.66.06-2.48.11-1.23.26-2.46.63-3.63.27-.84.8-1.52,1.73-1.76.46-.12.91-.06,1.33.08,1.14.39,2.26.84,3.39,1.26.16.06.31.13.44.23,0,.18-.03.35-.07.52-.13.55-.34,1.07-.45,1.62-.3,1.59-.41,3.19-.36,4.8.04,1.24.32,2.43.6,3.62.09.38.26.75.23,1.16Z"/>
  <path class="cls-1" d="m19.6,8.19c-.25-.42-.37-.9-.54-1.36-.31-.84-.71-1.64-.97-2.5-.53-1.74.57-2.82,2.02-3.2.84-.22,1.72-.33,2.59-.43,1.41-.17,2.82-.16,4.23-.1.94.04,1.88.14,2.81.34.59.13,1.17.29,1.65.61.72.48,1.3,1.11,1.31,2.09.01.85-.24,1.61-.55,2.39-.21.52-.42,1.05-.6,1.58-.08.23-.15.46-.33.63-.56-.34-1.19-.53-1.82-.66-.61-.13-1.24-.18-1.87-.25-.7-.08-1.41-.14-2.1-.14-.52,0-1.05.01-1.58.09-1.15.16-2.31.21-3.41.64-.27.1-.6.05-.84.26Z"/>
  <path class="cls-1" d="m17.49,41.7c-.24.57-.48,1.15-.73,1.72-.32.73-.63,1.47-.98,2.19-.22.45-.52.86-.99,1.1-.53.27-1.11.37-1.67.24-.5-.11-1.01-.35-1.39-.73-.1-.1-.2-.08-.29-.13-.36-.2-.71-.44-1.02-.69-.99-.79-1.98-1.58-2.85-2.51-1.03-1.09-1.98-2.25-2.78-3.52-1-1.58-.37-3.33,1.02-4.26.72-.48,1.54-.75,2.33-1.08.38-.16.73-.4,1.15-.46-.02.23.06.43.16.63.19.4.45.76.67,1.14.54.94,1.21,1.8,1.94,2.6,1.23,1.34,2.66,2.46,4.26,3.34.36.2.71.45,1.17.42Z"/>
  <path class="cls-1" d="m42.77,19.65c1.01-.41,2.01-.84,3.03-1.22.92-.35,1.86-.41,2.72.16.89.59,1.35,1.48,1.51,2.53.11.75.23,1.51.32,2.26.06.55.06,1.1.09,1.65,0,.31.01.63.02.94,0,.04,0,.08,0,.12,0,.05,0,.09,0,.14-.09,1.48-.2,2.97-.55,4.42-.18.74-.47,1.43-1.12,1.88-.64.44-1.31.56-2.06.31-1.39-.47-2.72-1.08-4.09-1.6.38-.29.51-.72.61-1.16.13-.58.25-1.16.32-1.75.05-.42.2-.81.22-1.24.06-1.84,0-3.67-.39-5.48-.15-.68-.26-1.36-.59-1.98Z"/>
  <path class="cls-1" d="m33.55,9.23c.02-.24.16-.43.25-.64.38-.91.76-1.82,1.16-2.72.29-.65.76-1.18,1.36-1.55.78-.48,1.61-.38,2.36.03,1,.55,1.91,1.24,2.77,2.01.63.56,1.29,1.08,1.88,1.69,1.07,1.11,2.04,2.29,2.88,3.58.56.86.65,1.85.31,2.8-.23.64-.72,1.16-1.35,1.47-.81.4-1.6.82-2.47,1.09-.34.11-.65.35-1.01.46.02-.25-.06-.48-.18-.7-.5-.89-1.02-1.75-1.65-2.56-.65-.84-1.36-1.6-2.13-2.3-.91-.82-1.9-1.56-2.99-2.14-.38-.2-.71-.55-1.2-.52Z"/>
  <path class="cls-1" d="m9.23,17.43c-.22.03-.37-.13-.54-.2-.86-.37-1.71-.77-2.57-1.14-.68-.29-1.17-.78-1.55-1.38-.52-.83-.41-1.72-.07-2.56.45-1.09,1.22-1.97,1.97-2.85,1.57-1.85,3.4-3.41,5.42-4.75.49-.32,1.05-.55,1.59-.55.71,0,1.38.27,1.88.85.41.47.57,1.05.82,1.59.31.67.61,1.34.93,2.01.1.21.16.43.24.65-.06.01-.14.01-.19.05-1.05.69-2.17,1.25-3.16,2.05-1.26,1.01-2.34,2.16-3.28,3.47-.56.78-.99,1.65-1.51,2.46-.07.11-.03.21.02.31Z"/>
  <path class="cls-5" d="m31.32,42.69c-.3-.03-.46.25-.71.32-.52.14-1.04.3-1.57.42-1.4.32-2.82.36-4.25.35-.93,0-1.84-.16-2.75-.31-.53-.09-1.06-.22-1.55-.43-.3-.13-.62.01-.91-.14.36-.9.72-1.8,1.07-2.71.36-.92.69-1.84,1.05-2.76.13-.33.2-.69.49-.94,1.4.49,2.83.66,4.3.49.03.03.06.03.09,0,.75-.09,1.5-.16,2.2-.5.34.37.48.85.65,1.31.3.83.64,1.64.97,2.46.12.3.22.61.3.93.07.27.31.51.4.81.07.24.16.47.24.7Z"/>
  <path class="cls-5" d="m9.23,17.43c-.05-.1-.09-.2-.02-.31.52-.81.95-1.67,1.51-2.46.94-1.3,2.03-2.45,3.28-3.47.99-.8,2.11-1.36,3.16-2.05.05-.03.13-.03.19-.05.04.21.16.38.25.57.39.77.66,1.59,1.04,2.36.39.79.67,1.62,1.07,2.39.14.26.24.54.34.82-.2-.04-.25.1-.3.25-.29.07-.51.26-.75.41-1.29.82-2.34,1.9-3.16,3.19-.19.3-.45.58-.5.96-.09.05-.17.06-.28,0-.96-.52-2-.87-2.99-1.32-.92-.42-1.85-.8-2.75-1.25-.04-.02-.07-.05-.11-.07Z"/>
  <path class="cls-5" d="m17.49,41.7c-.45.04-.8-.22-1.17-.42-1.6-.88-3.03-2-4.26-3.34-.73-.79-1.4-1.65-1.94-2.6-.22-.38-.48-.74-.67-1.14-.1-.21-.17-.41-.16-.63,1-.56,2.08-.94,3.12-1.41.76-.35,1.52-.69,2.27-1.04.18-.08.36-.15.56-.16.16.11.24.28.34.44.76,1.13,1.52,2.25,2.65,3.07.6.44,1.21.85,1.88,1.17-.06.54-.41.98-.59,1.47-.27.74-.61,1.44-.89,2.18-.18.47-.42.91-.65,1.36-.18.34-.21.76-.48,1.06Z"/>
  <path class="cls-5" d="m42.77,19.65c.33.62.45,1.3.59,1.98.39,1.81.45,3.64.39,5.48-.01.42-.17.82-.22,1.24-.07.59-.19,1.17-.32,1.75-.1.44-.23.87-.61,1.16-.39-.08-.76-.22-1.13-.37-.58-.25-1.17-.48-1.76-.71-.85-.34-1.69-.67-2.54-1.01-.19-.08-.4-.11-.56-.25,0-.18,0-.35.05-.53.48-1.97.52-3.93-.04-5.89-.04-.13-.06-.26-.09-.39.41-.29.9-.38,1.36-.56,1.62-.64,3.24-1.26,4.87-1.89Z"/>
  <path class="cls-5" d="m33.55,9.23c.48-.03.82.32,1.2.52,1.09.58,2.08,1.32,2.99,2.14.77.7,1.49,1.46,2.13,2.3.63.81,1.15,1.67,1.65,2.56.12.21.2.44.18.7-1.48.71-2.99,1.35-4.5,2-.33.14-.66.3-.99.46-.18.09-.36.16-.57.15-.11-.37-.36-.65-.57-.96-.84-1.29-1.86-2.39-3.18-3.21-.33-.2-.69-.36-.96-.66.17-.67.5-1.26.76-1.9.46-1.16,1.04-2.26,1.51-3.42.09-.23.16-.49.35-.69Z"/>
  <path class="cls-5" d="m8.05,31.37c.04-.41-.13-.77-.23-1.16-.28-1.19-.56-2.38-.6-3.62-.05-1.62.06-3.21.36-4.8.1-.56.31-1.08.45-1.62.04-.17.08-.34.07-.52.32.03.59.21.88.31.68.24,1.34.53,2.01.79.97.38,1.94.75,2.91,1.12.2.07.4.11.52.3-.03.15-.04.31-.09.45-.42,1.22-.49,2.48-.38,3.76.07.86.3,1.69.47,2.53-1.03.53-2.16.8-3.21,1.25-.99.43-2,.81-3,1.21-.05.02-.11,0-.16,0Z"/>
  <path class="cls-5" d="m19.6,8.19c.24-.21.57-.16.84-.26,1.1-.42,2.26-.48,3.41-.64.53-.07,1.06-.09,1.58-.09.7,0,1.4.06,2.1.14.62.07,1.26.12,1.87.25.63.13,1.26.32,1.82.66-.02.45-.27.83-.42,1.23-.54,1.43-1.09,2.86-1.65,4.29-.09.23-.22.45-.34.67-.15.04-.24-.09-.37-.13-1.6-.45-3.22-.52-4.86-.24-.53.09-1,.35-1.54.38-.18-.3-.29-.64-.41-.96-.3-.82-.63-1.64-.96-2.45-.39-.94-.73-1.91-1.08-2.86Z"/>
  <path class="cls-5" d="m41.69,33.62c0,.22-.08.4-.18.59-.7,1.47-1.68,2.74-2.79,3.9-.88.93-1.86,1.77-2.96,2.45-.52.32-1.03.65-1.55.96-.23.14-.49.19-.75.06-.63-1.3-1.2-2.63-1.78-3.95-.25-.56-.43-1.15-.76-1.67-.05-.09-.04-.21-.06-.32.14-.06.28-.12.41-.19,1.7-.96,3.08-2.23,4.04-3.95.11-.19.28-.35.27-.59,1.02.33,1.99.79,2.98,1.22.76.33,1.52.67,2.28,1.01.3.13.6.25.84.48Z"/>
  <path class="cls-4" d="m30.94,15.23c.26.3.63.45.96.66,1.32.82,2.34,1.92,3.18,3.21.2.31.46.59.57.96-.31.32-.75.4-1.13.58-1.63.78-3.33,1.41-4.96,2.2-.3.14-.62.31-.98.14-.56-.27-.78-.77-.52-1.32.36-.74.63-1.52.99-2.25.35-.7.56-1.47.92-2.17.34-.66.47-1.42.97-2Z"/>
  <path class="cls-4" d="m22.06,14.45c.54-.03,1.01-.29,1.54-.38,1.64-.28,3.26-.21,4.86.24.13.04.22.16.37.13-.15.7-.46,1.35-.71,2.02-.45,1.23-.92,2.45-1.42,3.66-.16.39-.15.85-.48,1.17-.51.5-1.3.41-1.58-.27-.48-1.17-.93-2.35-1.39-3.52-.37-.93-.74-1.85-1.11-2.78-.03-.08-.05-.17-.08-.25Z"/>
  <path class="cls-4" d="m15.36,20.06c.04-.38.31-.66.5-.96.82-1.29,1.86-2.37,3.16-3.19.24-.15.46-.34.75-.41.12,0,.23,0,.35,0,.15.06.19.21.24.34.44,1,.87,2.01,1.32,3.01.41.9.76,1.82,1.2,2.7.19.37.16.77-.13,1.13-.3.38-.71.37-1.09.24-.66-.24-1.3-.56-1.96-.83-.84-.33-1.62-.78-2.48-1.08-.61-.21-1.17-.56-1.77-.8-.06-.02-.12-.07-.09-.16Z"/>
  <path class="cls-4" d="m28.77,36.48c-.69.34-1.45.41-2.2.5-.03,0-.06,0-.09,0-1.47.16-2.9,0-4.3-.49-.04-.35.13-.65.21-.97.12-.42.29-.85.48-1.23.3-.59.51-1.22.76-1.82.31-.76.63-1.52.9-2.29.17-.48.43-.73.89-.74.62-.02.83.11,1.02.67.46,1.34.99,2.65,1.53,3.96.25.61.46,1.24.69,1.87.06.18.1.36.09.55Z"/>
  <path class="cls-4" d="m36.54,22.1c.03.13.05.26.09.39.56,1.96.52,3.93.04,5.89-.04.18-.04.35-.05.53-1.1-.25-2.1-.77-3.14-1.17-1.08-.41-2.14-.84-3.22-1.25-.6-.23-.83-.47-.84-.95-.01-.49.18-.76.64-.94,2.02-.79,4.03-1.58,6.05-2.37.14-.06.29-.09.44-.13Z"/>
  <path class="cls-4" d="m14.43,28.91c-.17-.84-.41-1.67-.47-2.53-.1-1.28-.04-2.53.38-3.76.05-.14.06-.3.09-.45.73.08,1.36.45,2.04.7.36.13.7.3,1.06.41.81.24,1.54.65,2.32.95.27.1.53.19.8.28.66.2.98.73.84,1.41-.03.14-.12.23-.23.31-.28.18-.6.27-.9.39-1.87.75-3.74,1.48-5.61,2.23-.11.04-.21.06-.32.07Z"/>
  <path class="cls-4" d="m20.1,35.63c-.67-.32-1.28-.73-1.88-1.17-1.13-.82-1.89-1.94-2.65-3.07-.1-.15-.18-.33-.34-.44,1.24-.67,2.56-1.17,3.85-1.73.82-.36,1.63-.73,2.44-1.09.42-.19.82-.13,1.22.07.25.13.36.54.26.92-.11.42-.34.79-.51,1.19-.28.65-.56,1.3-.85,1.95-.21.46-.35.95-.56,1.4-.2.41-.4.83-.62,1.24-.13.24-.14.53-.35.73Z"/>
  <path class="cls-4" d="m35.59,30.91c.01.24-.16.4-.27.59-.95,1.72-2.34,3-4.04,3.95-.13.07-.28.13-.41.19-.07-.06-.15-.13-.18-.23-.3-.94-.78-1.81-1.17-2.72-.39-.91-.79-1.81-1.18-2.72-.1-.24-.16-.5-.3-.73-.21-.35,0-.61.23-.84.24-.25.5-.49.9-.35.4.14.76.37,1.16.53,1.3.52,2.59,1.08,3.88,1.62.37.16.74.32,1.12.47.11.05.23.08.27.22Z"/>
  <path class="cls-2" d="m20.1,15.5c-.12,0-.23,0-.35,0,.05-.15.1-.29.3-.25.07.07.03.17.05.25Z"/>
  <path class="cls-3" d="m50.44,25.98c0-.31-.01-.63-.02-.94.1.31.09.63.02.94Z"/>
  <path class="cls-3" d="m50.43,26.24s0-.09,0-.14c.05.05.04.1,0,.14Z"/>
  <path class="cls-2" d="m26.48,36.98s.06,0,.09,0c-.03.04-.06.04-.09,0Z"/>
</svg>