<?xml version="1.0" encoding="utf-8"?>
<!-- Generator: Adobe Illustrator 27.5.0, SVG Export Plug-In . SVG Version: 6.00 Build 0)  -->
<svg version="1.1" id="Layer_1" xmlns="http://www.w3.org/2000/svg" xmlns:xlink="http://www.w3.org/1999/xlink" x="0px" y="0px"
	 viewBox="0 0 16 16" style="enable-background:new 0 0 16 16;" xml:space="preserve">
<style type="text/css">
	.st0{fill:#5764F2;}
	.st1{fill:#FFFFFF;}
</style>
<g>
	<path class="st0" d="M15.6,7.4c-0.2-0.2-0.3-0.5-0.5-0.7c-0.2-0.3-0.3-0.6-0.3-0.9c0-0.3,0-0.5,0.1-0.8c0.1-0.8-0.1-1.1-0.8-1.4
		c-0.1-0.1-0.3-0.1-0.4-0.2c-0.6-0.2-0.9-0.6-1.1-1.1c-0.1-0.3-0.2-0.5-0.4-0.7c-0.2-0.3-0.4-0.4-0.8-0.4c-0.3,0-0.5,0-0.8,0.1
		c-0.5,0.1-1,0-1.5-0.3C9.1,0.7,8.9,0.6,8.7,0.4c-0.5-0.3-0.9-0.3-1.4,0C7.1,0.6,6.9,0.7,6.7,0.9C6.4,1.1,6,1.2,5.6,1.2
		c-0.4,0-0.7-0.1-1.1-0.1c-0.3,0-0.6,0.1-0.8,0.4C3.6,1.7,3.5,2,3.4,2.2c-0.2,0.6-0.6,1-1.2,1.2C2,3.5,1.7,3.7,1.5,3.8
		C1.2,4,1.1,4.3,1.1,4.6c0,0.3,0,0.5,0.1,0.8c0.1,0.5,0,1-0.3,1.4C0.7,7,0.6,7.1,0.4,7.3c-0.4,0.5-0.4,0.9,0,1.4
		c0.2,0.2,0.3,0.4,0.5,0.6c0.2,0.3,0.3,0.6,0.3,0.9c0,0.3-0.1,0.7-0.1,1c-0.1,0.5,0.2,0.9,0.6,1.1c0.2,0.1,0.3,0.2,0.5,0.2
		c0.6,0.2,1,0.6,1.2,1.2c0.1,0.2,0.2,0.5,0.3,0.7c0.2,0.3,0.4,0.4,0.7,0.4c0.3,0,0.5,0,0.8-0.1c0.5-0.1,1,0,1.4,0.3
		c0.2,0.2,0.4,0.3,0.6,0.4c0.4,0.3,0.9,0.3,1.3,0c0.2-0.2,0.5-0.3,0.7-0.5c0.3-0.2,0.6-0.3,0.9-0.3c0.3,0,0.5,0,0.8,0.1
		c0.8,0.1,1.1-0.1,1.4-0.8c0.1-0.2,0.2-0.4,0.3-0.6c0.2-0.4,0.5-0.7,0.9-0.9c0.3-0.1,0.6-0.3,0.9-0.4c0.3-0.2,0.5-0.5,0.5-0.8
		c0-0.2,0-0.5-0.1-0.7c-0.1-0.5,0-1,0.4-1.5c0.2-0.2,0.3-0.4,0.4-0.6C15.9,8.2,15.9,7.8,15.6,7.4z"/>
	<g>
		<path class="st1" d="M10.5,6.4L9.2,7.3C9,7.4,8.9,7.4,8.7,7.3C8.6,7.2,8.4,7.1,8.3,7c-0.4-0.1-0.7,0-1,0.2L6.8,7.5L4.4,9.2
			C3.8,9.5,3.1,9.4,2.8,8.8C2.4,8.3,2.6,7.6,3.1,7.2l2.9-2c0.8-0.5,1.8-0.7,2.6-0.5c0.8,0.2,1.4,0.6,1.9,1.2
			C10.7,6.1,10.6,6.3,10.5,6.4z"/>
		<path class="st1" d="M13.4,7.8c0,0.4-0.2,0.8-0.5,1l-3,2c-0.6,0.4-1.2,0.6-1.9,0.6c-0.3,0-0.5,0-0.8-0.1C6.4,11,5.9,10.6,5.4,10
			c-0.1-0.2,0-0.4,0.1-0.5l1.4-0.9c0.1-0.1,0.3-0.1,0.4,0C7.4,8.8,7.6,8.9,7.7,9c0.4,0,0.7,0,1-0.2l0.7-0.4l2-1.4l0.3-0.2
			c0.5-0.3,1.3-0.2,1.6,0.3C13.4,7.4,13.4,7.6,13.4,7.8z"/>
	</g>
</g>
</svg>
