<?xml version="1.0" encoding="utf-8"?>
<!-- Generator: Adobe Illustrator 27.5.0, SVG Export Plug-In . SVG Version: 6.00 Build 0)  -->
<svg version="1.1" id="Layer_1" xmlns="http://www.w3.org/2000/svg" xmlns:xlink="http://www.w3.org/1999/xlink" x="0px" y="0px"
	 viewBox="0 0 20 20" style="enable-background:new 0 0 20 20;" xml:space="preserve">
<style type="text/css">
	.st0{fill:#FFFFFF;}
</style>
<path class="st0" d="M18.1,16.9l-4.5-4.5c0.9-1.2,1.4-2.6,1.4-4.1c0-1.8-0.7-3.5-2-4.7c-1.3-1.3-2.9-2-4.7-2s-3.5,0.7-4.7,2
	c-1.3,1.3-2,2.9-2,4.7s0.7,3.5,2,4.7c1.3,1.3,2.9,2,4.7,2c1.5,0,2.9-0.5,4.1-1.4l4.5,4.5L18.1,16.9z M8.3,13.3
	c-1.3,0-2.6-0.5-3.5-1.5c-0.9-0.9-1.5-2.2-1.5-3.5s0.5-2.6,1.5-3.5C5.7,3.9,7,3.3,8.3,3.3s2.6,0.5,3.5,1.5c0.9,0.9,1.5,2.2,1.5,3.5
	s-0.5,2.6-1.5,3.5C10.9,12.8,9.7,13.3,8.3,13.3z"/>
</svg>
